<svg xmlns="http://www.w3.org/2000/svg" viewBox="0 0 1142 738" width="1142" height="738">
  <style>
    #screen-border { stroke-dasharray: 1; stroke-dashoffset: 1; animation: drawBorder 0.8s ease-out forwards; }
    #screen-mesh line { stroke-dasharray: 1; stroke-dashoffset: 1; animation: drawLine 0.3s ease-out forwards;
      animation-delay: calc(0.8s + var(--i) * 0.0617s); }
    @keyframes drawBorder { to { stroke-dashoffset: 0; } }
    @keyframes drawLine { to { stroke-dashoffset: 0; } }
  </style>
  <defs><clipPath id="screen-clip"><polygon points="362,443 570,476 570,560 362,527"/></clipPath></defs>
  <g id="screen-mesh" clip-path="url(#screen-clip)" stroke="#0a0a0a" stroke-width="0.7" stroke-linecap="butt">
    <line pathLength="1" style="--i:0" x1="362.0" y1="443.0" x2="362.0" y2="527.0"/>
    <line pathLength="1" style="--i:1" x1="368.1" y1="444.0" x2="368.1" y2="528.0"/>
    <line pathLength="1" style="--i:2" x1="374.2" y1="444.9" x2="374.2" y2="528.9"/>
    <line pathLength="1" style="--i:3" x1="380.4" y1="445.9" x2="380.4" y2="529.9"/>
    <line pathLength="1" style="--i:4" x1="386.5" y1="446.9" x2="386.5" y2="530.9"/>
    <line pathLength="1" style="--i:5" x1="392.6" y1="447.9" x2="392.6" y2="531.9"/>
    <line pathLength="1" style="--i:6" x1="398.7" y1="448.8" x2="398.7" y2="532.8"/>
    <line pathLength="1" style="--i:7" x1="404.8" y1="449.8" x2="404.8" y2="533.8"/>
    <line pathLength="1" style="--i:8" x1="410.9" y1="450.8" x2="410.9" y2="534.8"/>
    <line pathLength="1" style="--i:9" x1="417.1" y1="451.7" x2="417.1" y2="535.7"/>
    <line pathLength="1" style="--i:10" x1="423.2" y1="452.7" x2="423.2" y2="536.7"/>
    <line pathLength="1" style="--i:11" x1="429.3" y1="453.7" x2="429.3" y2="537.7"/>
    <line pathLength="1" style="--i:12" x1="435.4" y1="454.6" x2="435.4" y2="538.6"/>
    <line pathLength="1" style="--i:13" x1="441.5" y1="455.6" x2="441.5" y2="539.6"/>
    <line pathLength="1" style="--i:14" x1="447.6" y1="456.6" x2="447.6" y2="540.6"/>
    <line pathLength="1" style="--i:15" x1="453.8" y1="457.6" x2="453.8" y2="541.6"/>
    <line pathLength="1" style="--i:16" x1="459.9" y1="458.5" x2="459.9" y2="542.5"/>
    <line pathLength="1" style="--i:17" x1="466.0" y1="459.5" x2="466.0" y2="543.5"/>
    <line pathLength="1" style="--i:18" x1="472.1" y1="460.5" x2="472.1" y2="544.5"/>
    <line pathLength="1" style="--i:19" x1="478.2" y1="461.4" x2="478.2" y2="545.4"/>
    <line pathLength="1" style="--i:20" x1="484.4" y1="462.4" x2="484.4" y2="546.4"/>
    <line pathLength="1" style="--i:21" x1="490.5" y1="463.4" x2="490.5" y2="547.4"/>
    <line pathLength="1" style="--i:22" x1="496.6" y1="464.4" x2="496.6" y2="548.4"/>
    <line pathLength="1" style="--i:23" x1="502.7" y1="465.3" x2="502.7" y2="549.3"/>
    <line pathLength="1" style="--i:24" x1="508.8" y1="466.3" x2="508.8" y2="550.3"/>
    <line pathLength="1" style="--i:25" x1="514.9" y1="467.3" x2="514.9" y2="551.3"/>
    <line pathLength="1" style="--i:26" x1="521.1" y1="468.2" x2="521.1" y2="552.2"/>
    <line pathLength="1" style="--i:27" x1="527.2" y1="469.2" x2="527.2" y2="553.2"/>
    <line pathLength="1" style="--i:28" x1="533.3" y1="470.2" x2="533.3" y2="554.2"/>
    <line pathLength="1" style="--i:29" x1="539.4" y1="471.1" x2="539.4" y2="555.1"/>
    <line pathLength="1" style="--i:30" x1="545.5" y1="472.1" x2="545.5" y2="556.1"/>
    <line pathLength="1" style="--i:31" x1="551.6" y1="473.1" x2="551.6" y2="557.1"/>
    <line pathLength="1" style="--i:32" x1="557.8" y1="474.1" x2="557.8" y2="558.1"/>
    <line pathLength="1" style="--i:33" x1="563.9" y1="475.0" x2="563.9" y2="559.0"/>
    <line pathLength="1" style="--i:34" x1="570.0" y1="476.0" x2="570.0" y2="560.0"/>
    <line pathLength="1" style="--i:35" x1="362.0" y1="449.0" x2="570.0" y2="482.0"/>
    <line pathLength="1" style="--i:36" x1="362.0" y1="455.0" x2="570.0" y2="488.0"/>
    <line pathLength="1" style="--i:37" x1="362.0" y1="461.0" x2="570.0" y2="494.0"/>
    <line pathLength="1" style="--i:38" x1="362.0" y1="467.0" x2="570.0" y2="500.0"/>
    <line pathLength="1" style="--i:39" x1="362.0" y1="473.0" x2="570.0" y2="506.0"/>
    <line pathLength="1" style="--i:40" x1="362.0" y1="479.0" x2="570.0" y2="512.0"/>
    <line pathLength="1" style="--i:41" x1="362.0" y1="485.0" x2="570.0" y2="518.0"/>
    <line pathLength="1" style="--i:42" x1="362.0" y1="491.0" x2="570.0" y2="524.0"/>
    <line pathLength="1" style="--i:43" x1="362.0" y1="497.0" x2="570.0" y2="530.0"/>
    <line pathLength="1" style="--i:44" x1="362.0" y1="503.0" x2="570.0" y2="536.0"/>
    <line pathLength="1" style="--i:45" x1="362.0" y1="509.0" x2="570.0" y2="542.0"/>
    <line pathLength="1" style="--i:46" x1="362.0" y1="515.0" x2="570.0" y2="548.0"/>
    <line pathLength="1" style="--i:47" x1="362.0" y1="521.0" x2="570.0" y2="554.0"/>
  </g>
  <polygon id="screen-border" pathLength="1" points="362,443 570,476 570,560 362,527" fill="none" stroke="#0a0a0a" stroke-width="10" stroke-linejoin="miter"/>
</svg>